<svg xmlns="http://www.w3.org/2000/svg" viewBox="0 0 500 500"><g id="freepik--background-simple--inject-15"><path d="M87.25,102.15c27.92-59.45,127.06-51.06,165.32-9.26s50.7,68.6,85.21,53,78.52-11.44,81,38.17S380.91,292.3,316.73,309.65,252.57,388.41,167.63,376c-46.31-6.75-47.36-56.86-40.82-98.3S54.87,171.09,87.25,102.15Z" style="fill:#88BA99"></path><path d="M87.25,102.15c27.92-59.45,127.06-51.06,165.32-9.26s50.7,68.6,85.21,53,78.52-11.44,81,38.17S380.91,292.3,316.73,309.65,252.57,388.41,167.63,376c-46.31-6.75-47.36-56.86-40.82-98.3S54.87,171.09,87.25,102.15Z" style="fill:#fff;opacity:0.9"></path></g><g id="freepik--Shadow--inject-15"><ellipse id="freepik--path--inject-15" cx="250" cy="416.24" rx="193.89" ry="11.32" style="fill:#f5f5f5"></ellipse></g><g id="freepik--Code--inject-15"><rect x="70.89" y="127.64" width="197.66" height="159.21" rx="2.16" style="isolation:isolate;opacity:0.2"></rect><rect x="76.61" y="121.81" width="197.66" height="159.21" rx="2.16" style="fill:#88BA99"></rect><path d="M76.61,136V279A2,2,0,0,0,78.49,281H272.38a2,2,0,0,0,1.89-2.06V136Z" style="fill:#fff;opacity:0.8"></path><rect x="78.95" y="144.41" width="192.97" height="126.27" style="fill:#263238"></rect><path d="M270.76,128.48a2.87,2.87,0,1,1-2.86-3.16A3,3,0,0,1,270.76,128.48Z" style="fill:#fff;opacity:0.6000000000000001"></path><path d="M261.39,128.48a2.87,2.87,0,1,1-2.86-3.16A3,3,0,0,1,261.39,128.48Z" style="fill:#fff;opacity:0.6000000000000001"></path><path d="M252,128.48a2.87,2.87,0,1,1-2.86-3.16A3,3,0,0,1,252,128.48Z" style="fill:#fff;opacity:0.6000000000000001"></path><path d="M90.62,164.7v8.1H89.48v-7.09H87.65v-1Z" style="fill:#fff"></path><path d="M93,168.75c0-2.64,1.41-4.14,3.31-4.14s3.29,1.5,3.29,4.14-1.41,4.14-3.29,4.14S93,171.39,93,168.75Zm5.45,0c0-2.07-.88-3.11-2.14-3.11s-2.16,1-2.16,3.11.88,3.11,2.16,3.11S98.42,170.82,98.42,168.75Z" style="fill:#fff"></path><path d="M103.73,164.7v8.1h-1.14v-7.09h-1.83v-1Z" style="fill:#fff"></path><path d="M106.08,168.75c0-2.64,1.41-4.14,3.31-4.14s3.29,1.5,3.29,4.14-1.41,4.14-3.29,4.14S106.08,171.39,106.08,168.75Zm5.45,0c0-2.07-.88-3.11-2.14-3.11s-2.15,1-2.15,3.11.87,3.11,2.15,3.11S111.53,170.82,111.53,168.75Z" style="fill:#fff"></path><path d="M116.84,164.7v8.1H115.7v-7.09h-1.83v-1Z" style="fill:#fff"></path><path d="M119.19,168.75c0-2.64,1.41-4.14,3.31-4.14s3.29,1.5,3.29,4.14-1.41,4.14-3.29,4.14S119.19,171.39,119.19,168.75Zm5.45,0c0-2.07-.88-3.11-2.14-3.11s-2.15,1-2.15,3.11.88,3.11,2.15,3.11S124.64,170.82,124.64,168.75Z" style="fill:#fff"></path><path d="M130,164.7v8.1h-1.15v-7.09H127v-1Z" style="fill:#fff"></path><path d="M134.81,164.7v8.1h-1.14v-7.09h-1.83v-1Z" style="fill:#fff"></path><path d="M139.67,164.7v8.1h-1.15v-7.09H136.7v-1Z" style="fill:#fff"></path><path d="M144.52,164.7v8.1h-1.14v-7.09h-1.83v-1Z" style="fill:#fff"></path><path d="M146.87,168.75c0-2.64,1.41-4.14,3.31-4.14s3.29,1.5,3.29,4.14-1.41,4.14-3.29,4.14S146.87,171.39,146.87,168.75Zm5.45,0c0-2.07-.88-3.11-2.14-3.11s-2.15,1-2.15,3.11.88,3.11,2.15,3.11S152.32,170.82,152.32,168.75Z" style="fill:#fff"></path><path d="M155.16,168.75c0-2.64,1.41-4.14,3.31-4.14s3.29,1.5,3.29,4.14-1.41,4.14-3.29,4.14S155.16,171.39,155.16,168.75Zm5.45,0c0-2.07-.88-3.11-2.14-3.11s-2.15,1-2.15,3.11.88,3.11,2.15,3.11S160.61,170.82,160.61,168.75Z" style="fill:#fff"></path><path d="M163.45,168.75c0-2.64,1.41-4.14,3.31-4.14s3.29,1.5,3.29,4.14-1.41,4.14-3.29,4.14S163.45,171.39,163.45,168.75Zm5.45,0c0-2.07-.88-3.11-2.14-3.11s-2.15,1-2.15,3.11.88,3.11,2.15,3.11S168.9,170.82,168.9,168.75Z" style="fill:#fff"></path><path d="M174.22,164.7v8.1h-1.15v-7.09h-1.83v-1Z" style="fill:#fff"></path><path d="M179.07,164.7v8.1h-1.14v-7.09H176.1v-1Z" style="fill:#fff"></path><path d="M181.42,168.75c0-2.64,1.41-4.14,3.31-4.14s3.29,1.5,3.29,4.14-1.41,4.14-3.29,4.14S181.42,171.39,181.42,168.75Zm5.45,0c0-2.07-.88-3.11-2.14-3.11s-2.16,1-2.16,3.11.88,3.11,2.16,3.11S186.87,170.82,186.87,168.75Z" style="fill:#fff"></path><path d="M189.71,168.75c0-2.64,1.41-4.14,3.31-4.14s3.29,1.5,3.29,4.14-1.41,4.14-3.29,4.14S189.71,171.39,189.71,168.75Zm5.45,0c0-2.07-.88-3.11-2.14-3.11s-2.16,1-2.16,3.11.88,3.11,2.16,3.11S195.16,170.82,195.16,168.75Z" style="fill:#fff"></path><path d="M198,168.75c0-2.64,1.41-4.14,3.31-4.14s3.29,1.5,3.29,4.14-1.41,4.14-3.29,4.14S198,171.39,198,168.75Zm5.44,0c0-2.07-.87-3.11-2.13-3.11s-2.16,1-2.16,3.11.88,3.11,2.16,3.11S203.44,170.82,203.44,168.75Z" style="fill:#fff"></path><path d="M208.76,164.7v8.1h-1.14v-7.09h-1.83v-1Z" style="fill:#fff"></path><path d="M213.62,164.7v8.1h-1.15v-7.09h-1.82v-1Z" style="fill:#fff"></path><path d="M218.47,164.7v8.1h-1.14v-7.09H215.5v-1Z" style="fill:#fff"></path><path d="M220.82,168.75c0-2.64,1.41-4.14,3.31-4.14s3.29,1.5,3.29,4.14-1.41,4.14-3.29,4.14S220.82,171.39,220.82,168.75Zm5.45,0c0-2.07-.88-3.11-2.14-3.11s-2.15,1-2.15,3.11.88,3.11,2.15,3.11S226.27,170.82,226.27,168.75Z" style="fill:#fff"></path><path d="M231.59,164.7v8.1h-1.15v-7.09h-1.83v-1Z" style="fill:#fff"></path><path d="M233.93,168.75c0-2.64,1.41-4.14,3.31-4.14s3.3,1.5,3.3,4.14-1.42,4.14-3.3,4.14S233.93,171.39,233.93,168.75Zm5.45,0c0-2.07-.88-3.11-2.14-3.11s-2.15,1-2.15,3.11.88,3.11,2.15,3.11S239.38,170.82,239.38,168.75Z" style="fill:#fff"></path><path d="M244.7,164.7v8.1h-1.15v-7.09h-1.83v-1Z" style="fill:#fff"></path><path d="M247,168.75c0-2.64,1.41-4.14,3.31-4.14s3.3,1.5,3.3,4.14-1.41,4.14-3.3,4.14S247,171.39,247,168.75Zm5.45,0c0-2.07-.88-3.11-2.14-3.11s-2.15,1-2.15,3.11.88,3.11,2.15,3.11S252.49,170.82,252.49,168.75Z" style="fill:#fff"></path><path d="M255.33,168.75c0-2.64,1.41-4.14,3.31-4.14s3.3,1.5,3.3,4.14-1.41,4.14-3.3,4.14S255.33,171.39,255.33,168.75Zm5.45,0c0-2.07-.88-3.11-2.14-3.11s-2.15,1-2.15,3.11.88,3.11,2.15,3.11S260.78,170.82,260.78,168.75Z" style="fill:#fff"></path><path d="M90.6,177.72v8.09H89.46v-7.09H87.63v-1Z" style="fill:#fff"></path><path d="M95.46,177.72v8.09H94.32v-7.09H92.49v-1Z" style="fill:#fff"></path><path d="M100.32,177.72v8.09H99.17v-7.09H97.34v-1Z" style="fill:#fff"></path><path d="M105.17,177.72v8.09H104v-7.09H102.2v-1Z" style="fill:#fff"></path><path d="M107.52,181.77c0-2.64,1.41-4.15,3.31-4.15s3.29,1.51,3.29,4.15-1.41,4.14-3.29,4.14S107.52,184.4,107.52,181.77Zm5.45,0c0-2.08-.88-3.12-2.14-3.12s-2.15,1-2.15,3.12.87,3.11,2.15,3.11S113,183.84,113,181.77Z" style="fill:#fff"></path><path d="M115.81,181.77c0-2.64,1.41-4.15,3.31-4.15s3.29,1.51,3.29,4.15-1.41,4.14-3.29,4.14S115.81,184.4,115.81,181.77Zm5.45,0c0-2.08-.88-3.12-2.14-3.12s-2.15,1-2.15,3.12.87,3.11,2.15,3.11S121.26,183.84,121.26,181.77Z" style="fill:#fff"></path><path d="M124.1,181.77c0-2.64,1.41-4.15,3.31-4.15s3.29,1.51,3.29,4.15-1.41,4.14-3.29,4.14S124.1,184.4,124.1,181.77Zm5.45,0c0-2.08-.88-3.12-2.14-3.12s-2.15,1-2.15,3.12.87,3.11,2.15,3.11S129.55,183.84,129.55,181.77Z" style="fill:#fff"></path><path d="M134.86,177.72v8.09h-1.14v-7.09h-1.83v-1Z" style="fill:#fff"></path><path d="M137.21,181.77c0-2.64,1.41-4.15,3.31-4.15s3.29,1.51,3.29,4.15-1.41,4.14-3.29,4.14S137.21,184.4,137.21,181.77Zm5.45,0c0-2.08-.88-3.12-2.14-3.12s-2.15,1-2.15,3.12.88,3.11,2.15,3.11S142.66,183.84,142.66,181.77Z" style="fill:#fff"></path><path d="M148,177.72v8.09h-1.15v-7.09H145v-1Z" style="fill:#fff"></path><path d="M150.32,181.77c0-2.64,1.41-4.15,3.31-4.15s3.3,1.51,3.3,4.15-1.42,4.14-3.3,4.14S150.32,184.4,150.32,181.77Zm5.45,0c0-2.08-.88-3.12-2.14-3.12s-2.15,1-2.15,3.12.88,3.11,2.15,3.11S155.77,183.84,155.77,181.77Z" style="fill:#fff"></path><path d="M161.09,177.72v8.09h-1.15v-7.09h-1.83v-1Z" style="fill:#fff"></path><path d="M163.43,181.77c0-2.64,1.41-4.15,3.31-4.15s3.3,1.51,3.3,4.15-1.41,4.14-3.3,4.14S163.43,184.4,163.43,181.77Zm5.45,0c0-2.08-.88-3.12-2.14-3.12s-2.15,1-2.15,3.12.88,3.11,2.15,3.11S168.88,183.84,168.88,181.77Z" style="fill:#fff"></path><path d="M174.2,177.72v8.09h-1.15v-7.09h-1.82v-1Z" style="fill:#fff"></path><path d="M176.54,181.77c0-2.64,1.42-4.15,3.31-4.15s3.3,1.51,3.3,4.15-1.41,4.14-3.3,4.14S176.54,184.4,176.54,181.77Zm5.45,0c0-2.08-.88-3.12-2.14-3.12s-2.15,1-2.15,3.12.88,3.11,2.15,3.11S182,183.84,182,181.77Z" style="fill:#fff"></path><path d="M187.31,177.72v8.09h-1.15v-7.09h-1.82v-1Z" style="fill:#fff"></path><path d="M192.17,177.72v8.09H191v-7.09h-1.83v-1Z" style="fill:#fff"></path><path d="M197,177.72v8.09h-1.14v-7.09h-1.83v-1Z" style="fill:#fff"></path><path d="M201.88,177.72v8.09h-1.15v-7.09H198.9v-1Z" style="fill:#fff"></path><path d="M206.73,177.72v8.09h-1.14v-7.09h-1.83v-1Z" style="fill:#fff"></path><path d="M209.08,181.77c0-2.64,1.41-4.15,3.31-4.15s3.29,1.51,3.29,4.15-1.41,4.14-3.29,4.14S209.08,184.4,209.08,181.77Zm5.45,0c0-2.08-.88-3.12-2.14-3.12s-2.15,1-2.15,3.12.87,3.11,2.15,3.11S214.53,183.84,214.53,181.77Z" style="fill:#fff"></path><path d="M217.37,181.77c0-2.64,1.41-4.15,3.31-4.15s3.29,1.51,3.29,4.15-1.41,4.14-3.29,4.14S217.37,184.4,217.37,181.77Zm5.45,0c0-2.08-.88-3.12-2.14-3.12s-2.15,1-2.15,3.12.87,3.11,2.15,3.11S222.82,183.84,222.82,181.77Z" style="fill:#fff"></path><path d="M225.66,181.77c0-2.64,1.41-4.15,3.31-4.15s3.29,1.51,3.29,4.15-1.41,4.14-3.29,4.14S225.66,184.4,225.66,181.77Zm5.45,0c0-2.08-.88-3.12-2.14-3.12s-2.15,1-2.15,3.12.87,3.11,2.15,3.11S231.11,183.84,231.11,181.77Z" style="fill:#fff"></path><path d="M234,181.77c0-2.64,1.41-4.15,3.31-4.15s3.29,1.51,3.29,4.15-1.41,4.14-3.29,4.14S234,184.4,234,181.77Zm5.45,0c0-2.08-.88-3.12-2.14-3.12s-2.15,1-2.15,3.12.87,3.11,2.15,3.11S239.4,183.84,239.4,181.77Z" style="fill:#fff"></path><path d="M242.24,181.77c0-2.64,1.41-4.15,3.31-4.15s3.29,1.51,3.29,4.15-1.41,4.14-3.29,4.14S242.24,184.4,242.24,181.77Zm5.45,0c0-2.08-.88-3.12-2.14-3.12s-2.15,1-2.15,3.12.87,3.11,2.15,3.11S247.69,183.84,247.69,181.77Z" style="fill:#fff"></path><path d="M250.53,181.77c0-2.64,1.41-4.15,3.31-4.15s3.29,1.51,3.29,4.15-1.41,4.14-3.29,4.14S250.53,184.4,250.53,181.77Zm5.45,0c0-2.08-.88-3.12-2.14-3.12s-2.15,1-2.15,3.12.87,3.11,2.15,3.11S256,183.84,256,181.77Z" style="fill:#fff"></path><path d="M261.29,177.72v8.09h-1.14v-7.09h-1.83v-1Z" style="fill:#fff"></path><path d="M88.16,155.73c0-2.63,1.41-4.14,3.31-4.14s3.3,1.51,3.3,4.14-1.41,4.15-3.3,4.15S88.16,158.37,88.16,155.73Zm5.45,0c0-2.07-.88-3.11-2.14-3.11s-2.15,1-2.15,3.11.88,3.12,2.15,3.12S93.61,157.8,93.61,155.73Z" style="fill:#fff"></path><path d="M98.93,151.69v8.09H97.78v-7.09H96v-1Z" style="fill:#fff"></path><path d="M103.78,151.69v8.09h-1.14v-7.09h-1.83v-1Z" style="fill:#fff"></path><path d="M108.64,151.69v8.09H107.5v-7.09h-1.83v-1Z" style="fill:#fff"></path><path d="M111,155.73c0-2.63,1.41-4.14,3.3-4.14s3.3,1.51,3.3,4.14-1.41,4.15-3.3,4.15S111,158.37,111,155.73Zm5.44,0c0-2.07-.87-3.11-2.14-3.11s-2.15,1-2.15,3.11.88,3.12,2.15,3.12S116.43,157.8,116.43,155.73Z" style="fill:#fff"></path><path d="M121.75,151.69v8.09h-1.14v-7.09h-1.83v-1Z" style="fill:#fff"></path><path d="M124.1,155.73c0-2.63,1.41-4.14,3.31-4.14s3.29,1.51,3.29,4.14-1.41,4.15-3.29,4.15S124.1,158.37,124.1,155.73Zm5.45,0c0-2.07-.88-3.11-2.14-3.11s-2.16,1-2.16,3.11.88,3.12,2.16,3.12S129.55,157.8,129.55,155.73Z" style="fill:#fff"></path><path d="M134.86,151.69v8.09h-1.14v-7.09h-1.83v-1Z" style="fill:#fff"></path><path d="M137.21,155.73c0-2.63,1.41-4.14,3.31-4.14s3.29,1.51,3.29,4.14-1.41,4.15-3.29,4.15S137.21,158.37,137.21,155.73Zm5.45,0c0-2.07-.88-3.11-2.14-3.11s-2.15,1-2.15,3.11.88,3.12,2.15,3.12S142.66,157.8,142.66,155.73Z" style="fill:#fff"></path><path d="M148,151.69v8.09h-1.15v-7.09H145v-1Z" style="fill:#fff"></path><path d="M152.83,151.69v8.09h-1.14v-7.09h-1.83v-1Z" style="fill:#fff"></path><path d="M157.69,151.69v8.09h-1.15v-7.09h-1.83v-1Z" style="fill:#fff"></path><path d="M160,155.73c0-2.63,1.41-4.14,3.31-4.14s3.3,1.51,3.3,4.14-1.41,4.15-3.3,4.15S160,158.37,160,155.73Zm5.45,0c0-2.07-.88-3.11-2.14-3.11s-2.15,1-2.15,3.11.88,3.12,2.15,3.12S165.48,157.8,165.48,155.73Z" style="fill:#fff"></path><path d="M168.32,155.73c0-2.63,1.41-4.14,3.31-4.14s3.3,1.51,3.3,4.14-1.41,4.15-3.3,4.15S168.32,158.37,168.32,155.73Zm5.45,0c0-2.07-.88-3.11-2.14-3.11s-2.15,1-2.15,3.11.88,3.12,2.15,3.12S173.77,157.8,173.77,155.73Z" style="fill:#fff"></path><path d="M179.09,151.69v8.09h-1.15v-7.09h-1.82v-1Z" style="fill:#fff"></path><path d="M181.43,155.73c0-2.63,1.42-4.14,3.31-4.14s3.3,1.51,3.3,4.14-1.41,4.15-3.3,4.15S181.43,158.37,181.43,155.73Zm5.45,0c0-2.07-.88-3.11-2.14-3.11s-2.15,1-2.15,3.11.88,3.12,2.15,3.12S186.88,157.8,186.88,155.73Z" style="fill:#fff"></path><path d="M192.2,151.69v8.09h-1.15v-7.09h-1.82v-1Z" style="fill:#fff"></path><path d="M194.55,155.73c0-2.63,1.41-4.14,3.3-4.14s3.3,1.51,3.3,4.14-1.41,4.15-3.3,4.15S194.55,158.37,194.55,155.73Zm5.44,0c0-2.07-.88-3.11-2.14-3.11s-2.15,1-2.15,3.11.88,3.12,2.15,3.12S200,157.8,200,155.73Z" style="fill:#fff"></path><path d="M205.31,151.69v8.09h-1.14v-7.09h-1.83v-1Z" style="fill:#fff"></path><path d="M207.66,155.73c0-2.63,1.41-4.14,3.3-4.14s3.3,1.51,3.3,4.14-1.41,4.15-3.3,4.15S207.66,158.37,207.66,155.73Zm5.44,0c0-2.07-.87-3.11-2.14-3.11s-2.15,1-2.15,3.11.88,3.12,2.15,3.12S213.1,157.8,213.1,155.73Z" style="fill:#fff"></path><path d="M216,155.73c0-2.63,1.41-4.14,3.3-4.14s3.3,1.51,3.3,4.14-1.41,4.15-3.3,4.15S216,158.37,216,155.73Zm5.44,0c0-2.07-.87-3.11-2.14-3.11s-2.15,1-2.15,3.11.88,3.12,2.15,3.12S221.39,157.8,221.39,155.73Z" style="fill:#fff"></path><path d="M226.71,151.69v8.09h-1.14v-7.09h-1.83v-1Z" style="fill:#fff"></path><path d="M229.06,155.73c0-2.63,1.41-4.14,3.31-4.14s3.29,1.51,3.29,4.14-1.41,4.15-3.29,4.15S229.06,158.37,229.06,155.73Zm5.45,0c0-2.07-.88-3.11-2.14-3.11s-2.15,1-2.15,3.11.87,3.12,2.15,3.12S234.51,157.8,234.51,155.73Z" style="fill:#fff"></path><path d="M239.82,151.69v8.09h-1.14v-7.09h-1.83v-1Z" style="fill:#fff"></path><path d="M242.17,155.73c0-2.63,1.41-4.14,3.31-4.14s3.29,1.51,3.29,4.14-1.41,4.15-3.29,4.15S242.17,158.37,242.17,155.73Zm5.45,0c0-2.07-.88-3.11-2.14-3.11s-2.15,1-2.15,3.11.88,3.12,2.15,3.12S247.62,157.8,247.62,155.73Z" style="fill:#fff"></path><path d="M252.94,151.69v8.09h-1.15v-7.09H250v-1Z" style="fill:#fff"></path><path d="M255.28,155.73c0-2.63,1.41-4.14,3.31-4.14s3.3,1.51,3.3,4.14-1.42,4.15-3.3,4.15S255.28,158.37,255.28,155.73Zm5.45,0c0-2.07-.88-3.11-2.14-3.11s-2.15,1-2.15,3.11.88,3.12,2.15,3.12S260.73,157.8,260.73,155.73Z" style="fill:#fff"></path><path d="M90.62,203.75v8.1H89.48v-7.09H87.65v-1Z" style="fill:#fff"></path><path d="M93,207.8c0-2.64,1.41-4.14,3.31-4.14s3.29,1.5,3.29,4.14-1.41,4.14-3.29,4.14S93,210.43,93,207.8Zm5.45,0c0-2.07-.88-3.11-2.14-3.11s-2.16,1-2.16,3.11.88,3.11,2.16,3.11S98.42,209.87,98.42,207.8Z" style="fill:#fff"></path><path d="M103.73,203.75v8.1h-1.14v-7.09h-1.83v-1Z" style="fill:#fff"></path><path d="M106.08,207.8c0-2.64,1.41-4.14,3.31-4.14s3.29,1.5,3.29,4.14-1.41,4.14-3.29,4.14S106.08,210.43,106.08,207.8Zm5.45,0c0-2.07-.88-3.11-2.14-3.11s-2.15,1-2.15,3.11.87,3.11,2.15,3.11S111.53,209.87,111.53,207.8Z" style="fill:#fff"></path><path d="M116.84,203.75v8.1H115.7v-7.09h-1.83v-1Z" style="fill:#fff"></path><path d="M119.19,207.8c0-2.64,1.41-4.14,3.31-4.14s3.29,1.5,3.29,4.14-1.41,4.14-3.29,4.14S119.19,210.43,119.19,207.8Zm5.45,0c0-2.07-.88-3.11-2.14-3.11s-2.15,1-2.15,3.11.88,3.11,2.15,3.11S124.64,209.87,124.64,207.8Z" style="fill:#fff"></path><path d="M130,203.75v8.1h-1.15v-7.09H127v-1Z" style="fill:#fff"></path><path d="M134.81,203.75v8.1h-1.14v-7.09h-1.83v-1Z" style="fill:#fff"></path><path d="M139.67,203.75v8.1h-1.15v-7.09H136.7v-1Z" style="fill:#fff"></path><path d="M144.52,203.75v8.1h-1.14v-7.09h-1.83v-1Z" style="fill:#fff"></path><path d="M146.87,207.8c0-2.64,1.41-4.14,3.31-4.14s3.29,1.5,3.29,4.14-1.41,4.14-3.29,4.14S146.87,210.43,146.87,207.8Zm5.45,0c0-2.07-.88-3.11-2.14-3.11s-2.15,1-2.15,3.11.88,3.11,2.15,3.11S152.32,209.87,152.32,207.8Z" style="fill:#fff"></path><path d="M155.16,207.8c0-2.64,1.41-4.14,3.31-4.14s3.29,1.5,3.29,4.14-1.41,4.14-3.29,4.14S155.16,210.43,155.16,207.8Zm5.45,0c0-2.07-.88-3.11-2.14-3.11s-2.15,1-2.15,3.11.88,3.11,2.15,3.11S160.61,209.87,160.61,207.8Z" style="fill:#fff"></path><path d="M163.45,207.8c0-2.64,1.41-4.14,3.31-4.14s3.29,1.5,3.29,4.14-1.41,4.14-3.29,4.14S163.45,210.43,163.45,207.8Zm5.45,0c0-2.07-.88-3.11-2.14-3.11s-2.15,1-2.15,3.11.88,3.11,2.15,3.11S168.9,209.87,168.9,207.8Z" style="fill:#fff"></path><path d="M174.22,203.75v8.1h-1.15v-7.09h-1.83v-1Z" style="fill:#fff"></path><path d="M179.07,203.75v8.1h-1.14v-7.09H176.1v-1Z" style="fill:#fff"></path><path d="M181.42,207.8c0-2.64,1.41-4.14,3.31-4.14s3.29,1.5,3.29,4.14-1.41,4.14-3.29,4.14S181.42,210.43,181.42,207.8Zm5.45,0c0-2.07-.88-3.11-2.14-3.11s-2.16,1-2.16,3.11.88,3.11,2.16,3.11S186.87,209.87,186.87,207.8Z" style="fill:#fff"></path><path d="M189.71,207.8c0-2.64,1.41-4.14,3.31-4.14s3.29,1.5,3.29,4.14-1.41,4.14-3.29,4.14S189.71,210.43,189.71,207.8Zm5.45,0c0-2.07-.88-3.11-2.14-3.11s-2.16,1-2.16,3.11.88,3.11,2.16,3.11S195.16,209.87,195.16,207.8Z" style="fill:#fff"></path><path d="M198,207.8c0-2.64,1.41-4.14,3.31-4.14s3.29,1.5,3.29,4.14-1.41,4.14-3.29,4.14S198,210.43,198,207.8Zm5.44,0c0-2.07-.87-3.11-2.13-3.11s-2.16,1-2.16,3.11.88,3.11,2.16,3.11S203.44,209.87,203.44,207.8Z" style="fill:#fff"></path><path d="M208.76,203.75v8.1h-1.14v-7.09h-1.83v-1Z" style="fill:#fff"></path><path d="M213.62,203.75v8.1h-1.15v-7.09h-1.82v-1Z" style="fill:#fff"></path><path d="M218.47,203.75v8.1h-1.14v-7.09H215.5v-1Z" style="fill:#fff"></path><path d="M220.82,207.8c0-2.64,1.41-4.14,3.31-4.14s3.29,1.5,3.29,4.14-1.41,4.14-3.29,4.14S220.82,210.43,220.82,207.8Zm5.45,0c0-2.07-.88-3.11-2.14-3.11s-2.15,1-2.15,3.11.88,3.11,2.15,3.11S226.27,209.87,226.27,207.8Z" style="fill:#fff"></path><path d="M231.59,203.75v8.1h-1.15v-7.09h-1.83v-1Z" style="fill:#fff"></path><path d="M233.93,207.8c0-2.64,1.41-4.14,3.31-4.14s3.3,1.5,3.3,4.14-1.42,4.14-3.3,4.14S233.93,210.43,233.93,207.8Zm5.45,0c0-2.07-.88-3.11-2.14-3.11s-2.15,1-2.15,3.11.88,3.11,2.15,3.11S239.38,209.87,239.38,207.8Z" style="fill:#fff"></path><path d="M244.7,203.75v8.1h-1.15v-7.09h-1.83v-1Z" style="fill:#fff"></path><path d="M247,207.8c0-2.64,1.41-4.14,3.31-4.14s3.3,1.5,3.3,4.14-1.41,4.14-3.3,4.14S247,210.43,247,207.8Zm5.45,0c0-2.07-.88-3.11-2.14-3.11s-2.15,1-2.15,3.11.88,3.11,2.15,3.11S252.49,209.87,252.49,207.8Z" style="fill:#fff"></path><path d="M255.33,207.8c0-2.64,1.41-4.14,3.31-4.14s3.3,1.5,3.3,4.14-1.41,4.14-3.3,4.14S255.33,210.43,255.33,207.8Zm5.45,0c0-2.07-.88-3.11-2.14-3.11s-2.15,1-2.15,3.11.88,3.11,2.15,3.11S260.78,209.87,260.78,207.8Z" style="fill:#fff"></path><path d="M90.6,216.76v8.1H89.46v-7.09H87.63v-1Z" style="fill:#fff"></path><path d="M95.46,216.76v8.1H94.32v-7.09H92.49v-1Z" style="fill:#fff"></path><path d="M100.32,216.76v8.1H99.17v-7.09H97.34v-1Z" style="fill:#fff"></path><path d="M105.17,216.76v8.1H104v-7.09H102.2v-1Z" style="fill:#fff"></path><path d="M107.52,220.81c0-2.63,1.41-4.14,3.31-4.14s3.29,1.51,3.29,4.14-1.41,4.14-3.29,4.14S107.52,223.45,107.52,220.81Zm5.45,0c0-2.07-.88-3.11-2.14-3.11s-2.15,1-2.15,3.11.87,3.11,2.15,3.11S113,222.88,113,220.81Z" style="fill:#fff"></path><path d="M115.81,220.81c0-2.63,1.41-4.14,3.31-4.14s3.29,1.51,3.29,4.14S121,225,119.12,225,115.81,223.45,115.81,220.81Zm5.45,0c0-2.07-.88-3.11-2.14-3.11s-2.15,1-2.15,3.11.87,3.11,2.15,3.11S121.26,222.88,121.26,220.81Z" style="fill:#fff"></path><path d="M124.1,220.81c0-2.63,1.41-4.14,3.31-4.14s3.29,1.51,3.29,4.14-1.41,4.14-3.29,4.14S124.1,223.45,124.1,220.81Zm5.45,0c0-2.07-.88-3.11-2.14-3.11s-2.15,1-2.15,3.11.87,3.11,2.15,3.11S129.55,222.88,129.55,220.81Z" style="fill:#fff"></path><path d="M134.86,216.76v8.1h-1.14v-7.09h-1.83v-1Z" style="fill:#fff"></path><path d="M137.21,220.81c0-2.63,1.41-4.14,3.31-4.14s3.29,1.51,3.29,4.14S142.4,225,140.52,225,137.21,223.45,137.21,220.81Zm5.45,0c0-2.07-.88-3.11-2.14-3.11s-2.15,1-2.15,3.11.88,3.11,2.15,3.11S142.66,222.88,142.66,220.81Z" style="fill:#fff"></path><path d="M148,216.76v8.1h-1.15v-7.09H145v-1Z" style="fill:#fff"></path><path d="M150.32,220.81c0-2.63,1.41-4.14,3.31-4.14s3.3,1.51,3.3,4.14-1.42,4.14-3.3,4.14S150.32,223.45,150.32,220.81Zm5.45,0c0-2.07-.88-3.11-2.14-3.11s-2.15,1-2.15,3.11.88,3.11,2.15,3.11S155.77,222.88,155.77,220.81Z" style="fill:#fff"></path><path d="M161.09,216.76v8.1h-1.15v-7.09h-1.83v-1Z" style="fill:#fff"></path><path d="M163.43,220.81c0-2.63,1.41-4.14,3.31-4.14s3.3,1.51,3.3,4.14-1.41,4.14-3.3,4.14S163.43,223.45,163.43,220.81Zm5.45,0c0-2.07-.88-3.11-2.14-3.11s-2.15,1-2.15,3.11.88,3.11,2.15,3.11S168.88,222.88,168.88,220.81Z" style="fill:#fff"></path><path d="M174.2,216.76v8.1h-1.15v-7.09h-1.82v-1Z" style="fill:#fff"></path><path d="M176.54,220.81c0-2.63,1.42-4.14,3.31-4.14s3.3,1.51,3.3,4.14-1.41,4.14-3.3,4.14S176.54,223.45,176.54,220.81Zm5.45,0c0-2.07-.88-3.11-2.14-3.11s-2.15,1-2.15,3.11.88,3.11,2.15,3.11S182,222.88,182,220.81Z" style="fill:#fff"></path><path d="M187.31,216.76v8.1h-1.15v-7.09h-1.82v-1Z" style="fill:#fff"></path><path d="M192.17,216.76v8.1H191v-7.09h-1.83v-1Z" style="fill:#fff"></path><path d="M197,216.76v8.1h-1.14v-7.09h-1.83v-1Z" style="fill:#fff"></path><path d="M201.88,216.76v8.1h-1.15v-7.09H198.9v-1Z" style="fill:#fff"></path><path d="M206.73,216.76v8.1h-1.14v-7.09h-1.83v-1Z" style="fill:#fff"></path><path d="M209.08,220.81c0-2.63,1.41-4.14,3.31-4.14s3.29,1.51,3.29,4.14-1.41,4.14-3.29,4.14S209.08,223.45,209.08,220.81Zm5.45,0c0-2.07-.88-3.11-2.14-3.11s-2.15,1-2.15,3.11.87,3.11,2.15,3.11S214.53,222.88,214.53,220.81Z" style="fill:#fff"></path><path d="M217.37,220.81c0-2.63,1.41-4.14,3.31-4.14s3.29,1.51,3.29,4.14-1.41,4.14-3.29,4.14S217.37,223.45,217.37,220.81Zm5.45,0c0-2.07-.88-3.11-2.14-3.11s-2.15,1-2.15,3.11.87,3.11,2.15,3.11S222.82,222.88,222.82,220.81Z" style="fill:#fff"></path><path d="M225.66,220.81c0-2.63,1.41-4.14,3.31-4.14s3.29,1.51,3.29,4.14S230.85,225,229,225,225.66,223.45,225.66,220.81Zm5.45,0c0-2.07-.88-3.11-2.14-3.11s-2.15,1-2.15,3.11.87,3.11,2.15,3.11S231.11,222.88,231.11,220.81Z" style="fill:#fff"></path><path d="M234,220.81c0-2.63,1.41-4.14,3.31-4.14s3.29,1.51,3.29,4.14-1.41,4.14-3.29,4.14S234,223.45,234,220.81Zm5.45,0c0-2.07-.88-3.11-2.14-3.11s-2.15,1-2.15,3.11.87,3.11,2.15,3.11S239.4,222.88,239.4,220.81Z" style="fill:#fff"></path><path d="M242.24,220.81c0-2.63,1.41-4.14,3.31-4.14s3.29,1.51,3.29,4.14-1.41,4.14-3.29,4.14S242.24,223.45,242.24,220.81Zm5.45,0c0-2.07-.88-3.11-2.14-3.11s-2.15,1-2.15,3.11.87,3.11,2.15,3.11S247.69,222.88,247.69,220.81Z" style="fill:#fff"></path><path d="M250.53,220.81c0-2.63,1.41-4.14,3.31-4.14s3.29,1.51,3.29,4.14-1.41,4.14-3.29,4.14S250.53,223.45,250.53,220.81Zm5.45,0c0-2.07-.88-3.11-2.14-3.11s-2.15,1-2.15,3.11.87,3.11,2.15,3.11S256,222.88,256,220.81Z" style="fill:#fff"></path><path d="M261.29,216.76v8.1h-1.14v-7.09h-1.83v-1Z" style="fill:#fff"></path><path d="M88.16,194.78c0-2.64,1.41-4.14,3.31-4.14s3.3,1.5,3.3,4.14-1.41,4.14-3.3,4.14S88.16,197.42,88.16,194.78Zm5.45,0c0-2.07-.88-3.11-2.14-3.11s-2.15,1-2.15,3.11.88,3.11,2.15,3.11S93.61,196.85,93.61,194.78Z" style="fill:#fff"></path><path d="M98.93,190.73v8.1H97.78v-7.09H96v-1Z" style="fill:#fff"></path><path d="M103.78,190.73v8.1h-1.14v-7.09h-1.83v-1Z" style="fill:#fff"></path><path d="M108.64,190.73v8.1H107.5v-7.09h-1.83v-1Z" style="fill:#fff"></path><path d="M111,194.78c0-2.64,1.41-4.14,3.3-4.14s3.3,1.5,3.3,4.14-1.41,4.14-3.3,4.14S111,197.42,111,194.78Zm5.44,0c0-2.07-.87-3.11-2.14-3.11s-2.15,1-2.15,3.11.88,3.11,2.15,3.11S116.43,196.85,116.43,194.78Z" style="fill:#fff"></path><path d="M121.75,190.73v8.1h-1.14v-7.09h-1.83v-1Z" style="fill:#fff"></path><path d="M124.1,194.78c0-2.64,1.41-4.14,3.31-4.14s3.29,1.5,3.29,4.14-1.41,4.14-3.29,4.14S124.1,197.42,124.1,194.78Zm5.45,0c0-2.07-.88-3.11-2.14-3.11s-2.16,1-2.16,3.11.88,3.11,2.16,3.11S129.55,196.85,129.55,194.78Z" style="fill:#fff"></path><path d="M134.86,190.73v8.1h-1.14v-7.09h-1.83v-1Z" style="fill:#fff"></path><path d="M137.21,194.78c0-2.64,1.41-4.14,3.31-4.14s3.29,1.5,3.29,4.14-1.41,4.14-3.29,4.14S137.21,197.42,137.21,194.78Zm5.45,0c0-2.07-.88-3.11-2.14-3.11s-2.15,1-2.15,3.11.88,3.11,2.15,3.11S142.66,196.85,142.66,194.78Z" style="fill:#fff"></path><path d="M148,190.73v8.1h-1.15v-7.09H145v-1Z" style="fill:#fff"></path><path d="M152.83,190.73v8.1h-1.14v-7.09h-1.83v-1Z" style="fill:#fff"></path><path d="M157.69,190.73v8.1h-1.15v-7.09h-1.83v-1Z" style="fill:#fff"></path><path d="M160,194.78c0-2.64,1.41-4.14,3.31-4.14s3.3,1.5,3.3,4.14-1.41,4.14-3.3,4.14S160,197.42,160,194.78Zm5.45,0c0-2.07-.88-3.11-2.14-3.11s-2.15,1-2.15,3.11.88,3.11,2.15,3.11S165.48,196.85,165.48,194.78Z" style="fill:#fff"></path><path d="M168.32,194.78c0-2.64,1.41-4.14,3.31-4.14s3.3,1.5,3.3,4.14-1.41,4.14-3.3,4.14S168.32,197.42,168.32,194.78Zm5.45,0c0-2.07-.88-3.11-2.14-3.11s-2.15,1-2.15,3.11.88,3.11,2.15,3.11S173.77,196.85,173.77,194.78Z" style="fill:#fff"></path><path d="M179.09,190.73v8.1h-1.15v-7.09h-1.82v-1Z" style="fill:#fff"></path><path d="M181.43,194.78c0-2.64,1.42-4.14,3.31-4.14s3.3,1.5,3.3,4.14-1.41,4.14-3.3,4.14S181.43,197.42,181.43,194.78Zm5.45,0c0-2.07-.88-3.11-2.14-3.11s-2.15,1-2.15,3.11.88,3.11,2.15,3.11S186.88,196.85,186.88,194.78Z" style="fill:#fff"></path><path d="M192.2,190.73v8.1h-1.15v-7.09h-1.82v-1Z" style="fill:#fff"></path><path d="M194.55,194.78c0-2.64,1.41-4.14,3.3-4.14s3.3,1.5,3.3,4.14-1.41,4.14-3.3,4.14S194.55,197.42,194.55,194.78Zm5.44,0c0-2.07-.88-3.11-2.14-3.11s-2.15,1-2.15,3.11.88,3.11,2.15,3.11S200,196.85,200,194.78Z" style="fill:#fff"></path><path d="M205.31,190.73v8.1h-1.14v-7.09h-1.83v-1Z" style="fill:#fff"></path><path d="M207.66,194.78c0-2.64,1.41-4.14,3.3-4.14s3.3,1.5,3.3,4.14-1.41,4.14-3.3,4.14S207.66,197.42,207.66,194.78Zm5.44,0c0-2.07-.87-3.11-2.14-3.11s-2.15,1-2.15,3.11.88,3.11,2.15,3.11S213.1,196.85,213.1,194.78Z" style="fill:#fff"></path><path d="M216,194.78c0-2.64,1.41-4.14,3.3-4.14s3.3,1.5,3.3,4.14-1.41,4.14-3.3,4.14S216,197.42,216,194.78Zm5.44,0c0-2.07-.87-3.11-2.14-3.11s-2.15,1-2.15,3.11.88,3.11,2.15,3.11S221.39,196.85,221.39,194.78Z" style="fill:#fff"></path><path d="M226.71,190.73v8.1h-1.14v-7.09h-1.83v-1Z" style="fill:#fff"></path><path d="M229.06,194.78c0-2.64,1.41-4.14,3.31-4.14s3.29,1.5,3.29,4.14-1.41,4.14-3.29,4.14S229.06,197.42,229.06,194.78Zm5.45,0c0-2.07-.88-3.11-2.14-3.11s-2.15,1-2.15,3.11.87,3.11,2.15,3.11S234.51,196.85,234.51,194.78Z" style="fill:#fff"></path><path d="M239.82,190.73v8.1h-1.14v-7.09h-1.83v-1Z" style="fill:#fff"></path><path d="M242.17,194.78c0-2.64,1.41-4.14,3.31-4.14s3.29,1.5,3.29,4.14-1.41,4.14-3.29,4.14S242.17,197.42,242.17,194.78Zm5.45,0c0-2.07-.88-3.11-2.14-3.11s-2.15,1-2.15,3.11.88,3.11,2.15,3.11S247.62,196.85,247.62,194.78Z" style="fill:#fff"></path><path d="M252.94,190.73v8.1h-1.15v-7.09H250v-1Z" style="fill:#fff"></path><path d="M255.28,194.78c0-2.64,1.41-4.14,3.31-4.14s3.3,1.5,3.3,4.14-1.42,4.14-3.3,4.14S255.28,197.42,255.28,194.78Zm5.45,0c0-2.07-.88-3.11-2.14-3.11s-2.15,1-2.15,3.11.88,3.11,2.15,3.11S260.73,196.85,260.73,194.78Z" style="fill:#fff"></path><path d="M90.62,242.8v8.09H89.48V243.8H87.65v-1Z" style="fill:#fff"></path><path d="M93,246.84c0-2.63,1.41-4.14,3.31-4.14s3.29,1.51,3.29,4.14S98.16,251,96.28,251,93,249.48,93,246.84Zm5.45,0c0-2.07-.88-3.11-2.14-3.11s-2.16,1-2.16,3.11S95,250,96.28,250,98.42,248.92,98.42,246.84Z" style="fill:#fff"></path><path d="M103.73,242.8v8.09h-1.14V243.8h-1.83v-1Z" style="fill:#fff"></path><path d="M106.08,246.84c0-2.63,1.41-4.14,3.31-4.14s3.29,1.51,3.29,4.14-1.41,4.15-3.29,4.15S106.08,249.48,106.08,246.84Zm5.45,0c0-2.07-.88-3.11-2.14-3.11s-2.15,1-2.15,3.11.87,3.12,2.15,3.12S111.53,248.92,111.53,246.84Z" style="fill:#fff"></path><path d="M116.84,242.8v8.09H115.7V243.8h-1.83v-1Z" style="fill:#fff"></path><path d="M119.19,246.84c0-2.63,1.41-4.14,3.31-4.14s3.29,1.51,3.29,4.14S124.38,251,122.5,251,119.19,249.48,119.19,246.84Zm5.45,0c0-2.07-.88-3.11-2.14-3.11s-2.15,1-2.15,3.11.88,3.12,2.15,3.12S124.64,248.92,124.64,246.84Z" style="fill:#fff"></path><path d="M130,242.8v8.09h-1.15V243.8H127v-1Z" style="fill:#fff"></path><path d="M134.81,242.8v8.09h-1.14V243.8h-1.83v-1Z" style="fill:#fff"></path><path d="M139.67,242.8v8.09h-1.15V243.8H136.7v-1Z" style="fill:#fff"></path><path d="M144.52,242.8v8.09h-1.14V243.8h-1.83v-1Z" style="fill:#fff"></path><path d="M146.87,246.84c0-2.63,1.41-4.14,3.31-4.14s3.29,1.51,3.29,4.14-1.41,4.15-3.29,4.15S146.87,249.48,146.87,246.84Zm5.45,0c0-2.07-.88-3.11-2.14-3.11s-2.15,1-2.15,3.11.88,3.12,2.15,3.12S152.32,248.92,152.32,246.84Z" style="fill:#fff"></path><path d="M155.16,246.84c0-2.63,1.41-4.14,3.31-4.14s3.29,1.51,3.29,4.14-1.41,4.15-3.29,4.15S155.16,249.48,155.16,246.84Zm5.45,0c0-2.07-.88-3.11-2.14-3.11s-2.15,1-2.15,3.11.88,3.12,2.15,3.12S160.61,248.92,160.61,246.84Z" style="fill:#fff"></path><path d="M163.45,246.84c0-2.63,1.41-4.14,3.31-4.14s3.29,1.51,3.29,4.14-1.41,4.15-3.29,4.15S163.45,249.48,163.45,246.84Zm5.45,0c0-2.07-.88-3.11-2.14-3.11s-2.15,1-2.15,3.11.88,3.12,2.15,3.12S168.9,248.92,168.9,246.84Z" style="fill:#fff"></path><path d="M174.22,242.8v8.09h-1.15V243.8h-1.83v-1Z" style="fill:#fff"></path><path d="M179.07,242.8v8.09h-1.14V243.8H176.1v-1Z" style="fill:#fff"></path><path d="M181.42,246.84c0-2.63,1.41-4.14,3.31-4.14s3.29,1.51,3.29,4.14-1.41,4.15-3.29,4.15S181.42,249.48,181.42,246.84Zm5.45,0c0-2.07-.88-3.11-2.14-3.11s-2.16,1-2.16,3.11.88,3.12,2.16,3.12S186.87,248.92,186.87,246.84Z" style="fill:#fff"></path><path d="M189.71,246.84c0-2.63,1.41-4.14,3.31-4.14s3.29,1.51,3.29,4.14S194.9,251,193,251,189.71,249.48,189.71,246.84Zm5.45,0c0-2.07-.88-3.11-2.14-3.11s-2.16,1-2.16,3.11S191.74,250,193,250,195.16,248.92,195.16,246.84Z" style="fill:#fff"></path><path d="M198,246.84c0-2.63,1.41-4.14,3.31-4.14s3.29,1.51,3.29,4.14-1.41,4.15-3.29,4.15S198,249.48,198,246.84Zm5.44,0c0-2.07-.87-3.11-2.13-3.11s-2.16,1-2.16,3.11S200,250,201.31,250,203.44,248.92,203.44,246.84Z" style="fill:#fff"></path><path d="M208.76,242.8v8.09h-1.14V243.8h-1.83v-1Z" style="fill:#fff"></path><path d="M213.62,242.8v8.09h-1.15V243.8h-1.82v-1Z" style="fill:#fff"></path><path d="M218.47,242.8v8.09h-1.14V243.8H215.5v-1Z" style="fill:#fff"></path><path d="M220.82,246.84c0-2.63,1.41-4.14,3.31-4.14s3.29,1.51,3.29,4.14S226,251,224.13,251,220.82,249.48,220.82,246.84Zm5.45,0c0-2.07-.88-3.11-2.14-3.11s-2.15,1-2.15,3.11.88,3.12,2.15,3.12S226.27,248.92,226.27,246.84Z" style="fill:#fff"></path><path d="M231.59,242.8v8.09h-1.15V243.8h-1.83v-1Z" style="fill:#fff"></path><path d="M233.93,246.84c0-2.63,1.41-4.14,3.31-4.14s3.3,1.51,3.3,4.14-1.42,4.15-3.3,4.15S233.93,249.48,233.93,246.84Zm5.45,0c0-2.07-.88-3.11-2.14-3.11s-2.15,1-2.15,3.11S236,250,237.24,250,239.38,248.92,239.38,246.84Z" style="fill:#fff"></path><path d="M244.7,242.8v8.09h-1.15V243.8h-1.83v-1Z" style="fill:#fff"></path><path d="M247,246.84c0-2.63,1.41-4.14,3.31-4.14s3.3,1.51,3.3,4.14-1.41,4.15-3.3,4.15S247,249.48,247,246.84Zm5.45,0c0-2.07-.88-3.11-2.14-3.11s-2.15,1-2.15,3.11.88,3.12,2.15,3.12S252.49,248.92,252.49,246.84Z" style="fill:#fff"></path><path d="M255.33,246.84c0-2.63,1.41-4.14,3.31-4.14s3.3,1.51,3.3,4.14-1.41,4.15-3.3,4.15S255.33,249.48,255.33,246.84Zm5.45,0c0-2.07-.88-3.11-2.14-3.11s-2.15,1-2.15,3.11.88,3.12,2.15,3.12S260.78,248.92,260.78,246.84Z" style="fill:#fff"></path><path d="M90.6,255.81v8.1H89.46v-7.09H87.63v-1Z" style="fill:#fff"></path><path d="M95.46,255.81v8.1H94.32v-7.09H92.49v-1Z" style="fill:#fff"></path><path d="M100.32,255.81v8.1H99.17v-7.09H97.34v-1Z" style="fill:#fff"></path><path d="M105.17,255.81v8.1H104v-7.09H102.2v-1Z" style="fill:#fff"></path><path d="M107.52,259.86c0-2.64,1.41-4.14,3.31-4.14s3.29,1.5,3.29,4.14-1.41,4.14-3.29,4.14S107.52,262.5,107.52,259.86Zm5.45,0c0-2.07-.88-3.11-2.14-3.11s-2.15,1-2.15,3.11.87,3.11,2.15,3.11S113,261.93,113,259.86Z" style="fill:#fff"></path><path d="M115.81,259.86c0-2.64,1.41-4.14,3.31-4.14s3.29,1.5,3.29,4.14S121,264,119.12,264,115.81,262.5,115.81,259.86Zm5.45,0c0-2.07-.88-3.11-2.14-3.11s-2.15,1-2.15,3.11.87,3.11,2.15,3.11S121.26,261.93,121.26,259.86Z" style="fill:#fff"></path><path d="M124.1,259.86c0-2.64,1.41-4.14,3.31-4.14s3.29,1.5,3.29,4.14-1.41,4.14-3.29,4.14S124.1,262.5,124.1,259.86Zm5.45,0c0-2.07-.88-3.11-2.14-3.11s-2.15,1-2.15,3.11.87,3.11,2.15,3.11S129.55,261.93,129.55,259.86Z" style="fill:#fff"></path><path d="M134.86,255.81v8.1h-1.14v-7.09h-1.83v-1Z" style="fill:#fff"></path><path d="M137.21,259.86c0-2.64,1.41-4.14,3.31-4.14s3.29,1.5,3.29,4.14S142.4,264,140.52,264,137.21,262.5,137.21,259.86Zm5.45,0c0-2.07-.88-3.11-2.14-3.11s-2.15,1-2.15,3.11.88,3.11,2.15,3.11S142.66,261.93,142.66,259.86Z" style="fill:#fff"></path><path d="M148,255.81v8.1h-1.15v-7.09H145v-1Z" style="fill:#fff"></path><path d="M150.32,259.86c0-2.64,1.41-4.14,3.31-4.14s3.3,1.5,3.3,4.14-1.42,4.14-3.3,4.14S150.32,262.5,150.32,259.86Zm5.45,0c0-2.07-.88-3.11-2.14-3.11s-2.15,1-2.15,3.11.88,3.11,2.15,3.11S155.77,261.93,155.77,259.86Z" style="fill:#fff"></path><path d="M161.09,255.81v8.1h-1.15v-7.09h-1.83v-1Z" style="fill:#fff"></path><path d="M163.43,259.86c0-2.64,1.41-4.14,3.31-4.14s3.3,1.5,3.3,4.14-1.41,4.14-3.3,4.14S163.43,262.5,163.43,259.86Zm5.45,0c0-2.07-.88-3.11-2.14-3.11s-2.15,1-2.15,3.11.88,3.11,2.15,3.11S168.88,261.93,168.88,259.86Z" style="fill:#fff"></path><path d="M174.2,255.81v8.1h-1.15v-7.09h-1.82v-1Z" style="fill:#fff"></path><path d="M176.54,259.86c0-2.64,1.42-4.14,3.31-4.14s3.3,1.5,3.3,4.14-1.41,4.14-3.3,4.14S176.54,262.5,176.54,259.86Zm5.45,0c0-2.07-.88-3.11-2.14-3.11s-2.15,1-2.15,3.11.88,3.11,2.15,3.11S182,261.93,182,259.86Z" style="fill:#fff"></path><path d="M187.31,255.81v8.1h-1.15v-7.09h-1.82v-1Z" style="fill:#fff"></path><path d="M192.17,255.81v8.1H191v-7.09h-1.83v-1Z" style="fill:#fff"></path><path d="M197,255.81v8.1h-1.14v-7.09h-1.83v-1Z" style="fill:#fff"></path><path d="M201.88,255.81v8.1h-1.15v-7.09H198.9v-1Z" style="fill:#fff"></path><path d="M206.73,255.81v8.1h-1.14v-7.09h-1.83v-1Z" style="fill:#fff"></path><path d="M209.08,259.86c0-2.64,1.41-4.14,3.31-4.14s3.29,1.5,3.29,4.14-1.41,4.14-3.29,4.14S209.08,262.5,209.08,259.86Zm5.45,0c0-2.07-.88-3.11-2.14-3.11s-2.15,1-2.15,3.11.87,3.11,2.15,3.11S214.53,261.93,214.53,259.86Z" style="fill:#fff"></path><path d="M217.37,259.86c0-2.64,1.41-4.14,3.31-4.14s3.29,1.5,3.29,4.14-1.41,4.14-3.29,4.14S217.37,262.5,217.37,259.86Zm5.45,0c0-2.07-.88-3.11-2.14-3.11s-2.15,1-2.15,3.11.87,3.11,2.15,3.11S222.82,261.93,222.82,259.86Z" style="fill:#fff"></path><path d="M225.66,259.86c0-2.64,1.41-4.14,3.31-4.14s3.29,1.5,3.29,4.14S230.85,264,229,264,225.66,262.5,225.66,259.86Zm5.45,0c0-2.07-.88-3.11-2.14-3.11s-2.15,1-2.15,3.11S227.69,263,229,263,231.11,261.93,231.11,259.86Z" style="fill:#fff"></path><path d="M234,259.86c0-2.64,1.41-4.14,3.31-4.14s3.29,1.5,3.29,4.14-1.41,4.14-3.29,4.14S234,262.5,234,259.86Zm5.45,0c0-2.07-.88-3.11-2.14-3.11s-2.15,1-2.15,3.11S236,263,237.26,263,239.4,261.93,239.4,259.86Z" style="fill:#fff"></path><path d="M242.24,259.86c0-2.64,1.41-4.14,3.31-4.14s3.29,1.5,3.29,4.14-1.41,4.14-3.29,4.14S242.24,262.5,242.24,259.86Zm5.45,0c0-2.07-.88-3.11-2.14-3.11s-2.15,1-2.15,3.11.87,3.11,2.15,3.11S247.69,261.93,247.69,259.86Z" style="fill:#fff"></path><path d="M250.53,259.86c0-2.64,1.41-4.14,3.31-4.14s3.29,1.5,3.29,4.14-1.41,4.14-3.29,4.14S250.53,262.5,250.53,259.86Zm5.45,0c0-2.07-.88-3.11-2.14-3.11s-2.15,1-2.15,3.11.87,3.11,2.15,3.11S256,261.93,256,259.86Z" style="fill:#fff"></path><path d="M261.29,255.81v8.1h-1.14v-7.09h-1.83v-1Z" style="fill:#fff"></path><path d="M88.16,233.83c0-2.64,1.41-4.14,3.31-4.14s3.3,1.5,3.3,4.14S93.36,238,91.47,238,88.16,236.47,88.16,233.83Zm5.45,0c0-2.07-.88-3.11-2.14-3.11s-2.15,1-2.15,3.11.88,3.11,2.15,3.11S93.61,235.9,93.61,233.83Z" style="fill:#fff"></path><path d="M98.93,229.78v8.1H97.78v-7.09H96v-1Z" style="fill:#fff"></path><path d="M103.78,229.78v8.1h-1.14v-7.09h-1.83v-1Z" style="fill:#fff"></path><path d="M108.64,229.78v8.1H107.5v-7.09h-1.83v-1Z" style="fill:#fff"></path><path d="M111,233.83c0-2.64,1.41-4.14,3.3-4.14s3.3,1.5,3.3,4.14-1.41,4.14-3.3,4.14S111,236.47,111,233.83Zm5.44,0c0-2.07-.87-3.11-2.14-3.11s-2.15,1-2.15,3.11.88,3.11,2.15,3.11S116.43,235.9,116.43,233.83Z" style="fill:#fff"></path><path d="M121.75,229.78v8.1h-1.14v-7.09h-1.83v-1Z" style="fill:#fff"></path><path d="M124.1,233.83c0-2.64,1.41-4.14,3.31-4.14s3.29,1.5,3.29,4.14-1.41,4.14-3.29,4.14S124.1,236.47,124.1,233.83Zm5.45,0c0-2.07-.88-3.11-2.14-3.11s-2.16,1-2.16,3.11.88,3.11,2.16,3.11S129.55,235.9,129.55,233.83Z" style="fill:#fff"></path><path d="M134.86,229.78v8.1h-1.14v-7.09h-1.83v-1Z" style="fill:#fff"></path><path d="M137.21,233.83c0-2.64,1.41-4.14,3.31-4.14s3.29,1.5,3.29,4.14S142.4,238,140.52,238,137.21,236.47,137.21,233.83Zm5.45,0c0-2.07-.88-3.11-2.14-3.11s-2.15,1-2.15,3.11.88,3.11,2.15,3.11S142.66,235.9,142.66,233.83Z" style="fill:#fff"></path><path d="M148,229.78v8.1h-1.15v-7.09H145v-1Z" style="fill:#fff"></path><path d="M152.83,229.78v8.1h-1.14v-7.09h-1.83v-1Z" style="fill:#fff"></path><path d="M157.69,229.78v8.1h-1.15v-7.09h-1.83v-1Z" style="fill:#fff"></path><path d="M160,233.83c0-2.64,1.41-4.14,3.31-4.14s3.3,1.5,3.3,4.14-1.41,4.14-3.3,4.14S160,236.47,160,233.83Zm5.45,0c0-2.07-.88-3.11-2.14-3.11s-2.15,1-2.15,3.11.88,3.11,2.15,3.11S165.48,235.9,165.48,233.83Z" style="fill:#fff"></path><path d="M168.32,233.83c0-2.64,1.41-4.14,3.31-4.14s3.3,1.5,3.3,4.14-1.41,4.14-3.3,4.14S168.32,236.47,168.32,233.83Zm5.45,0c0-2.07-.88-3.11-2.14-3.11s-2.15,1-2.15,3.11.88,3.11,2.15,3.11S173.77,235.9,173.77,233.83Z" style="fill:#fff"></path><path d="M179.09,229.78v8.1h-1.15v-7.09h-1.82v-1Z" style="fill:#fff"></path><path d="M181.43,233.83c0-2.64,1.42-4.14,3.31-4.14s3.3,1.5,3.3,4.14-1.41,4.14-3.3,4.14S181.43,236.47,181.43,233.83Zm5.45,0c0-2.07-.88-3.11-2.14-3.11s-2.15,1-2.15,3.11.88,3.11,2.15,3.11S186.88,235.9,186.88,233.83Z" style="fill:#fff"></path><path d="M192.2,229.78v8.1h-1.15v-7.09h-1.82v-1Z" style="fill:#fff"></path><path d="M194.55,233.83c0-2.64,1.41-4.14,3.3-4.14s3.3,1.5,3.3,4.14-1.41,4.14-3.3,4.14S194.55,236.47,194.55,233.83Zm5.44,0c0-2.07-.88-3.11-2.14-3.11s-2.15,1-2.15,3.11.88,3.11,2.15,3.11S200,235.9,200,233.83Z" style="fill:#fff"></path><path d="M205.31,229.78v8.1h-1.14v-7.09h-1.83v-1Z" style="fill:#fff"></path><path d="M207.66,233.83c0-2.64,1.41-4.14,3.3-4.14s3.3,1.5,3.3,4.14S212.85,238,211,238,207.66,236.47,207.66,233.83Zm5.44,0c0-2.07-.87-3.11-2.14-3.11s-2.15,1-2.15,3.11.88,3.11,2.15,3.11S213.1,235.9,213.1,233.83Z" style="fill:#fff"></path><path d="M216,233.83c0-2.64,1.41-4.14,3.3-4.14s3.3,1.5,3.3,4.14-1.41,4.14-3.3,4.14S216,236.47,216,233.83Zm5.44,0c0-2.07-.87-3.11-2.14-3.11s-2.15,1-2.15,3.11.88,3.11,2.15,3.11S221.39,235.9,221.39,233.83Z" style="fill:#fff"></path><path d="M226.71,229.78v8.1h-1.14v-7.09h-1.83v-1Z" style="fill:#fff"></path><path d="M229.06,233.83c0-2.64,1.41-4.14,3.31-4.14s3.29,1.5,3.29,4.14-1.41,4.14-3.29,4.14S229.06,236.47,229.06,233.83Zm5.45,0c0-2.07-.88-3.11-2.14-3.11s-2.15,1-2.15,3.11.87,3.11,2.15,3.11S234.51,235.9,234.51,233.83Z" style="fill:#fff"></path><path d="M239.82,229.78v8.1h-1.14v-7.09h-1.83v-1Z" style="fill:#fff"></path><path d="M242.17,233.83c0-2.64,1.41-4.14,3.31-4.14s3.29,1.5,3.29,4.14-1.41,4.14-3.29,4.14S242.17,236.47,242.17,233.83Zm5.45,0c0-2.07-.88-3.11-2.14-3.11s-2.15,1-2.15,3.11.88,3.11,2.15,3.11S247.62,235.9,247.62,233.83Z" style="fill:#fff"></path><path d="M252.94,229.78v8.1h-1.15v-7.09H250v-1Z" style="fill:#fff"></path><path d="M255.28,233.83c0-2.64,1.41-4.14,3.31-4.14s3.3,1.5,3.3,4.14-1.42,4.14-3.3,4.14S255.28,236.47,255.28,233.83Zm5.45,0c0-2.07-.88-3.11-2.14-3.11s-2.15,1-2.15,3.11.88,3.11,2.15,3.11S260.73,235.9,260.73,233.83Z" style="fill:#fff"></path></g><g id="freepik--Plant--inject-15"><path d="M115.11,385.83c0-.32-1.11-32.64-6.35-37.73-5.05-4.91-10.87-.18-11.12,0l-.64-.76c.07-.06,6.76-5.52,12.46,0,5.52,5.37,6.6,37.07,6.64,38.42Z" style="fill:#88BA99"></path><path d="M115.56,392.19c-.16-1.58-3.6-38.87,10.46-55l.76.66c-13.79,15.83-10.26,53.88-10.23,54.27Z" style="fill:#88BA99"></path><path d="M115.21,388.12l-1-.06c0-.44,2.74-43.67-7.53-53.12l.68-.73C118,344,115.33,386.33,115.21,388.12Z" style="fill:#88BA99"></path><path d="M116.56,388.09h-1c0-1.2.34-29.29,8.34-33.87a5.7,5.7,0,0,1,5.23-.51c4.86,2,7.26,10.62,7.36,11l-1,.27c0-.09-2.37-8.51-6.77-10.33a4.72,4.72,0,0,0-4.35.45C116.89,359.39,116.56,387.81,116.56,388.09Z" style="fill:#88BA99"></path><path d="M113.45,388.12l-1-.06c0-.22,1.19-22.12-4.71-29.83-1.41-1.84-2.94-2.72-4.56-2.61-3.83.27-7.06,5.9-7.09,6l-.87-.49c.14-.25,3.53-6.16,7.89-6.47,2-.15,3.8.88,5.43,3C114.67,365.62,113.51,387.21,113.45,388.12Z" style="fill:#88BA99"></path><path d="M114.58,391.11c-.17-2.13-3.88-52.25,2.67-61.11l.8.6c-6.32,8.55-2.52,59.91-2.48,60.43Z" style="fill:#88BA99"></path><path d="M130.88,358.87s-3.92,1.44-2.76,4.85,13.55,9,13.55,9,5.18-4.75.42-12.48S131,356.43,130.88,358.87Z" style="fill:#88BA99"></path><path d="M130.88,358.87s-3.92,1.44-2.76,4.85,13.55,9,13.55,9,5.18-4.75.42-12.48S131,356.43,130.88,358.87Z" style="fill:#fff;isolation:isolate;opacity:0.5"></path><path d="M113.86,352.38s4.17-.18,4.4,3.42-9,13.53-9,13.53S102.62,366.94,104,358,112.82,350.17,113.86,352.38Z" style="fill:#88BA99"></path><path d="M113.86,352.38s4.17-.18,4.4,3.42-9,13.53-9,13.53S102.62,366.94,104,358,112.82,350.17,113.86,352.38Z" style="fill:#fff;isolation:isolate;opacity:0.5"></path><path d="M110.33,335.18s2.78-.3,2.55-2-10.8-6.05-17,1c0,0,4,6.86,9.77,6.95S110.33,335.18,110.33,335.18Z" style="fill:#88BA99"></path><path d="M110.33,335.18s2.78-.3,2.55-2-10.8-6.05-17,1c0,0,4,6.86,9.77,6.95S110.33,335.18,110.33,335.18Z" style="fill:#fff;isolation:isolate;opacity:0.5"></path><path d="M115.51,331.07s-2.52,1.22-3.23-.34,6-10.85,15-8.17c0,0,.24,7.94-4.62,11.07S115.51,331.07,115.51,331.07Z" style="fill:#88BA99"></path><path d="M115.51,331.07s-2.52,1.22-3.23-.34,6-10.85,15-8.17c0,0,.24,7.94-4.62,11.07S115.51,331.07,115.51,331.07Z" style="fill:#fff;isolation:isolate;opacity:0.5"></path><path d="M102.35,357.5s1.92-1.55-.16-2.31-12.22-.54-12.33,9.52c0,0,11.83,2,13.3-1.86S102.35,357.5,102.35,357.5Z" style="fill:#88BA99"></path><path d="M102.35,357.5s1.92-1.55-.16-2.31-12.22-.54-12.33,9.52c0,0,11.83,2,13.3-1.86S102.35,357.5,102.35,357.5Z" style="fill:#fff;isolation:isolate;opacity:0.5"></path><path d="M126.47,334.93s-1.92-1.55.15-2.31,12.23-.54,12.34,9.52c0,0-11.83,2-13.3-1.86S126.47,334.93,126.47,334.93Z" style="fill:#88BA99"></path><path d="M126.47,334.93s-1.92-1.55.15-2.31,12.23-.54,12.34,9.52c0,0-11.83,2-13.3-1.86S126.47,334.93,126.47,334.93Z" style="fill:#fff;isolation:isolate;opacity:0.5"></path><path d="M120.22,343s-.17-1.88,1.35-1.14,6.81,6.45,1.32,11.87c0,0-7.38-5.47-6-8.32S120.22,343,120.22,343Z" style="fill:#88BA99"></path><path d="M120.22,343s-.17-1.88,1.35-1.14,6.81,6.45,1.32,11.87c0,0-7.38-5.47-6-8.32S120.22,343,120.22,343Z" style="fill:#fff;isolation:isolate;opacity:0.5"></path><path d="M100.63,345.72s1.15-1.51-.53-1.69-9.21,1.82-7.45,9.33c0,0,9.17-.69,9.56-3.81S100.63,345.72,100.63,345.72Z" style="fill:#88BA99"></path><path d="M100.63,345.72s1.15-1.51-.53-1.69-9.21,1.82-7.45,9.33c0,0,9.17-.69,9.56-3.81S100.63,345.72,100.63,345.72Z" style="fill:#fff;isolation:isolate;opacity:0.5"></path><polygon points="131.61 415.98 100.15 415.98 96.75 381.54 135 381.54 131.61 415.98" style="fill:#263238"></polygon><polygon points="131.61 415.98 100.15 415.98 96.75 381.54 135 381.54 131.61 415.98" style="fill:#fff;isolation:isolate;opacity:0.2"></polygon><rect x="95.07" y="377.74" width="41.61" height="7.6" style="fill:#263238"></rect><rect x="95.07" y="377.74" width="41.61" height="7.6" style="fill:#fff;isolation:isolate;opacity:0.4"></rect></g><g id="freepik--Character--inject-15"><path d="M383.11,395.75l-25.63-2.52V363.44H347.32v29.78l-25.73,2.53a5,5,0,0,0-4.51,5v3.85h70.53v-3.85A5,5,0,0,0,383.11,395.75Z" style="fill:#263238"></path><path d="M383.11,395.75l-25.63-2.52V363.44H347.32v29.78l-25.73,2.53a5,5,0,0,0-4.51,5v3.85h70.53v-3.85A5,5,0,0,0,383.11,395.75Z" style="fill:#fff;isolation:isolate;opacity:0.1"></path><path d="M326.44,409.34a6.64,6.64,0,1,1-6.64-6.64A6.64,6.64,0,0,1,326.44,409.34Z" style="fill:#263238"></path><path d="M378.26,409.34a6.64,6.64,0,1,0,6.64-6.64A6.64,6.64,0,0,0,378.26,409.34Z" style="fill:#263238"></path><path d="M345.57,339.09h13.66a0,0,0,0,1,0,0V367.5a3.68,3.68,0,0,1-3.68,3.68h-6.3a3.68,3.68,0,0,1-3.68-3.68V339.09A0,0,0,0,1,345.57,339.09Z" style="fill:#263238"></path><path d="M345.57,339.09h13.66a0,0,0,0,1,0,0V367.5a3.68,3.68,0,0,1-3.68,3.68h-6.3a3.68,3.68,0,0,1-3.68-3.68V339.09A0,0,0,0,1,345.57,339.09Z" style="fill:#fff;isolation:isolate;opacity:0.2"></path><path d="M387.88,283.4s-7.61,47.51-22.63,55.69h15.27s15.08-16.18,19.68-55.69Z" style="fill:#263238"></path><path d="M387.88,283.4s-7.61,47.51-22.63,55.69h15.27s15.08-16.18,19.68-55.69Z" style="fill:#fff;isolation:isolate;opacity:0.1"></path><path d="M317.29,332.38h68.43a0,0,0,0,1,0,0v6a4.45,4.45,0,0,1-4.45,4.45H321.74a4.45,4.45,0,0,1-4.45-4.45v-6A0,0,0,0,1,317.29,332.38Z" transform="translate(703.01 675.15) rotate(180)" style="fill:#263238"></path><path d="M402,293.05H377.54c-7.17,0-11.82-5.74-10.4-12.83l1.91-9.46a16.55,16.55,0,0,1,15.55-12.83h24.46c7.16,0,11.82,5.74,10.39,12.83l-1.9,9.46C416.13,287.31,409.16,293.05,402,293.05Z" style="fill:#263238"></path><path d="M317.29,332.38h68.43a0,0,0,0,1,0,0v6a4.45,4.45,0,0,1-4.45,4.45H321.74a4.45,4.45,0,0,1-4.45-4.45v-6A0,0,0,0,1,317.29,332.38Z" transform="translate(703.01 675.15) rotate(180)" style="fill:#fff;isolation:isolate;opacity:0.4"></path><path d="M402,293.05H377.54c-7.17,0-11.82-5.74-10.4-12.83l1.91-9.46a16.55,16.55,0,0,1,15.55-12.83h24.46c7.16,0,11.82,5.74,10.39,12.83l-1.9,9.46C416.13,287.31,409.16,293.05,402,293.05Z" style="fill:#fff;isolation:isolate;opacity:0.4"></path><rect x="314.44" y="337.58" width="74.13" height="5.2" rx="1.79" transform="translate(703.01 680.35) rotate(180)" style="fill:#263238"></rect><rect x="314.44" y="337.58" width="74.13" height="5.2" rx="1.79" transform="translate(703.01 680.35) rotate(180)" style="fill:#fff;isolation:isolate;opacity:0.6000000000000001"></rect><path d="M305.13,269.5l-7.42-.71,2.84,7.77s6.66.24,6.64-3.2Z" style="fill:#ebb376"></path><polygon points="291.06 272.01 295.77 277.86 300.55 276.56 297.71 268.79 291.06 272.01" style="fill:#ebb376"></polygon><g style="opacity:0.1"><path d="M305.13,269.5l-7.42-.71,2.84,7.77s6.66.24,6.64-3.2Z"></path><polygon points="291.06 272.01 295.77 277.86 300.55 276.56 297.71 268.79 291.06 272.01"></polygon></g><path d="M333.09,241.93c-2.14,3.94-4.06,7.87-5.89,11.93-.89,2-1.8,4.07-2.61,6.18s-1.63,4.21-2.31,6.5c-.18.55-.35,1.14-.51,1.75v.07a13,13,0,0,1-2.05.47c-.91.15-1.88.26-2.87.33-4,.31-8.33.24-12.55.23l-1,5.41a62.28,62.28,0,0,0,6.57,1.82,57.23,57.23,0,0,0,6.83,1.11,26.17,26.17,0,0,0,7.77-.23,11.78,11.78,0,0,0,2.55-.84,8.07,8.07,0,0,0,3.11-2.56,6.86,6.86,0,0,0,.66-1.16c.1-.2.18-.42.26-.63l.13-.39.24-.66c.16-.44.33-.89.53-1.35,1.49-3.69,3.38-7.55,5.25-11.35l5.71-11.46Z" style="fill:#e9b376"></path><path d="M333.09,241.93c-2.14,3.94-4.06,7.87-5.89,11.93-.89,2-1.8,4.07-2.61,6.18s-1.63,4.21-2.31,6.5c-.18.55-.35,1.14-.51,1.75v.07a13,13,0,0,1-2.05.47c-.91.15-1.88.26-2.87.33-4,.31-8.33.24-12.55.23l-1,5.41a62.28,62.28,0,0,0,6.57,1.82,57.23,57.23,0,0,0,6.83,1.11,26.17,26.17,0,0,0,7.77-.23,11.78,11.78,0,0,0,2.55-.84,8.07,8.07,0,0,0,3.11-2.56,6.86,6.86,0,0,0,.66-1.16c.1-.2.18-.42.26-.63l.13-.39.24-.66c.16-.44.33-.89.53-1.35,1.49-3.69,3.38-7.55,5.25-11.35l5.71-11.46Z" style="opacity:0.1"></path><polygon points="321.39 409.23 314.19 410.55 309.1 394.25 316.3 392.94 321.39 409.23" style="fill:#ebb376"></polygon><polygon points="316.3 392.94 309.1 394.26 311.73 402.66 318.93 401.34 316.3 392.94" style="opacity:0.2"></polygon><path d="M313.34,407.54l8.92.12a.65.65,0,0,1,.62.51l1.42,6.52a1.06,1.06,0,0,1-1.07,1.29c-2.87-.09-5-.28-8.58-.33-2.23,0-8.94.11-12,.06s-3.46-3.08-2.2-3.34c5.64-1.15,9.9-2.8,11.71-4.4A1.76,1.76,0,0,1,313.34,407.54Z" style="fill:#263238"></path><path d="M310.91,408.79a2.2,2.2,0,0,1-1.4-.4,1,1,0,0,1-.36-.92.52.52,0,0,1,.3-.48c.81-.41,3.17,1.07,3.43,1.24a.18.18,0,0,1,.08.18.17.17,0,0,1-.13.14A8.9,8.9,0,0,1,310.91,408.79Zm-1.08-1.53a.36.36,0,0,0-.22,0c-.05,0-.1.06-.11.2a.7.7,0,0,0,.23.63,3.56,3.56,0,0,0,2.6.17A7,7,0,0,0,309.83,407.26Z" style="fill:#88BA99"></path><path d="M312.79,408.55a.11.11,0,0,1-.08,0c-.76-.42-2.22-2-2.06-2.86a.55.55,0,0,1,.55-.44.93.93,0,0,1,.74.23c.85.7,1,2.82,1,2.91a.16.16,0,0,1-.08.16A.15.15,0,0,1,312.79,408.55Zm-1.47-3h-.08c-.22,0-.24.13-.25.17-.09.48.83,1.71,1.59,2.29a4.33,4.33,0,0,0-.86-2.31A.62.62,0,0,0,311.32,405.57Z" style="fill:#88BA99"></path><polygon points="337.62 408.5 330.3 408.4 328.45 391.43 335.77 391.53 337.62 408.5" style="fill:#ebb376"></polygon><polygon points="335.77 391.53 328.45 391.43 329.41 400.18 336.73 400.28 335.77 391.53" style="opacity:0.2"></polygon><path d="M345.53,240.82c3.21,6.24-7,26.7-7,26.7l-15.48-6.34a87.67,87.67,0,0,1,6.44-17.9C333.75,235.07,342,234,345.53,240.82Z" style="fill:#88BA99"></path><path d="M345.53,240.82c3.21,6.24-7,26.7-7,26.7l-15.48-6.34a87.67,87.67,0,0,1,6.44-17.9C333.75,235.07,342,234,345.53,240.82Z" style="fill:#fff;opacity:0.8"></path><path d="M338.33,251.5c-3.2,2.24-5.85,8.87-5.53,13.67l5.74,2.35a110.67,110.67,0,0,0,6.13-15.32C343.3,250.71,342,248.93,338.33,251.5Z" style="opacity:0.2"></path><path d="M377.06,232.06a162.85,162.85,0,0,0-.13,24.47c.36,5.69.95,11.08,1.6,16,1.53,11.41,3.4,20,3.61,23l-38.95,4.15c-12.92-40-6.88-62.84-6.88-62.84a77.08,77.08,0,0,1,9-2.77c.64-.15,1.3-.3,2-.43a145.24,145.24,0,0,1,16.56-1.76c1.05-.06,2.12-.1,3.16-.11C372.3,231.61,377.06,232.06,377.06,232.06Z" style="fill:#88BA99"></path><path d="M382.14,295.45l-39,4.14c-12.91-40-6.87-62.83-6.87-62.83a77.08,77.08,0,0,1,9-2.77c.64-.16,1.3-.3,2-.43a145.24,145.24,0,0,1,16.56-1.76c1.05-.07,2.12-.1,3.16-.12,5.31-.07,10.08.38,10.08.38a152.72,152.72,0,0,0-.39,19.54c.06,1.66.15,3.31.24,4.93.25,3.72.58,7.3,1,10.69.2,1.82.42,3.57.65,5.26C380.06,283.89,381.92,292.47,382.14,295.45Z" style="fill:#fff;opacity:0.8"></path><path d="M377.89,267.22c-12.74,13.43-31.13,4.29-31.13,4.29,12.93-2.22,15.32-12.65,15.32-12.65l-3.56-2.31,4.23-8s8.1.38,13.93,3c.06,1.66.15,3.31.24,4.93C377.17,260.25,377.5,263.83,377.89,267.22Z" style="opacity:0.2"></path><path d="M350.23,240.72c-.41,7-2.79,19-2.47,37.28l1.93,4.47,2.84-4.47s-1-28.11-.71-37Z" style="fill:#88BA99"></path><path d="M329.35,407.54l8.92.12a.65.65,0,0,1,.62.51l1.43,6.52a1.07,1.07,0,0,1-1.08,1.29c-2.87-.09-5-.28-8.58-.33-2.22,0-8.93.11-12,.06s-3.46-3.08-2.21-3.34c5.65-1.15,9.9-2.8,11.71-4.4A1.78,1.78,0,0,1,329.35,407.54Z" style="fill:#263238"></path><path d="M326.93,408.79a2.21,2.21,0,0,1-1.41-.4,1.07,1.07,0,0,1-.36-.92.54.54,0,0,1,.3-.48c.81-.41,3.17,1.07,3.44,1.24a.2.2,0,0,1,.07.18.17.17,0,0,1-.13.14A8.88,8.88,0,0,1,326.93,408.79Zm-1.08-1.53a.4.4,0,0,0-.23,0c-.05,0-.1.06-.11.2a.72.72,0,0,0,.23.63,3.57,3.57,0,0,0,2.6.17A6.87,6.87,0,0,0,325.85,407.26Z" style="fill:#88BA99"></path><path d="M328.8,408.55a.12.12,0,0,1-.08,0c-.76-.42-2.21-2-2.06-2.86a.55.55,0,0,1,.56-.44.91.91,0,0,1,.73.23c.85.7,1,2.82,1,2.91a.21.21,0,0,1-.08.16A.18.18,0,0,1,328.8,408.55Zm-1.46-3h-.08c-.23,0-.25.13-.26.17-.09.48.84,1.71,1.59,2.29a4.17,4.17,0,0,0-.86-2.31A.6.6,0,0,0,327.34,405.57Z" style="fill:#88BA99"></path><path d="M382.75,242.24c-2,5.13-4.19,10.1-6.6,15.06-1.2,2.48-2.45,4.95-3.83,7.42-.69,1.24-1.4,2.48-2.22,3.75-.4.63-.84,1.28-1.34,2a14.8,14.8,0,0,1-2.13,2.39,14.25,14.25,0,0,1-5.4,2.71,35.24,35.24,0,0,1-4.62.92,65.28,65.28,0,0,1-8.63.45,108.15,108.15,0,0,1-16.6-1.48l.36-5.49c5.27-.3,10.63-.71,15.78-1.33a70,70,0,0,0,7.47-1.27,23,23,0,0,0,3.24-1,4.82,4.82,0,0,0,1.75-1c-.12.11.22-.32.45-.72s.55-.92.83-1.45c.55-1.06,1.13-2.19,1.68-3.34,1.11-2.33,2.18-4.74,3.24-7.16l6.3-14.64Z" style="fill:#e9b376"></path><path d="M382.38,237.17c3,6.33-5.48,25.44-5.48,25.44l-16.6-6.81a102.69,102.69,0,0,1,6.88-17.15C371.81,229.92,378.7,229.51,382.38,237.17Z" style="fill:#88BA99"></path><path d="M382.38,237.17c3,6.33-5.48,25.44-5.48,25.44l-16.6-6.81a102.69,102.69,0,0,1,6.88-17.15C371.81,229.92,378.7,229.51,382.38,237.17Z" style="fill:#fff;opacity:0.8"></path><path d="M332,269.72l-7.33-1.16,2.59,9s6.45-.4,6.59-3.86Z" style="fill:#ebb376"></path><polygon points="319.33 271.5 321.82 278.86 327.24 277.58 324.65 268.56 319.33 271.5" style="fill:#ebb376"></polygon><path d="M306.54,399.78l13.3-3.91s-7.94-44.82-16-60.36c.61-.2,1.41-.46,2.4-.75,1.78-.54,4.14-1.2,6.92-2,19.33-5.36,58.51-15.41,58.51-15.41l-17.9-16.7S282.48,311.54,281,330.32C280.29,339.36,306.54,399.78,306.54,399.78Z" style="fill:#88BA99"></path><path d="M306.54,399.78l13.3-3.91s-7.94-44.82-16-60.36c.61-.2,1.41-.46,2.4-.75,1.78-.54,4.14-1.2,6.92-2,19.33-5.36,58.51-15.41,58.51-15.41l-17.9-16.7S282.48,311.54,281,330.32C280.29,339.36,306.54,399.78,306.54,399.78Z" style="fill:#fff;isolation:isolate;opacity:0.2"></path><path d="M382.3,292.8l-40.19-.31-3.72,17.12c-13.54,4.86-26.78,4.46-25.32,20.44,1.63,18,8.2,51.26,11.23,66h15.37c-.07-13.5-.75-45.23-5.22-63.5,9.68-1.12,42.75,4.61,48.88-6.74C386.77,319.49,382.3,292.8,382.3,292.8Z" style="fill:#88BA99"></path><polygon points="321.56 396.17 305.54 400.69 302.67 394.04 320.34 389.4 321.56 396.17" style="fill:#88BA99"></polygon><polygon points="321.56 396.17 305.54 400.69 302.67 394.04 320.34 389.4 321.56 396.17" style="fill:#fff;opacity:0.4"></polygon><path d="M382.3,292.8l-40.19-.31-3.72,17.12c-13.54,4.86-26.78,4.46-25.32,20.44,1.63,18,8.2,51.26,11.23,66h15.37c-.07-13.5-.75-45.23-5.22-63.5,9.68-1.12,42.75,4.61,48.88-6.74C386.77,319.49,382.3,292.8,382.3,292.8Z" style="fill:#fff;isolation:isolate;opacity:0.2"></path><polygon points="340.61 397.94 324 399.03 322.58 391.92 340.83 391.07 340.61 397.94" style="fill:#88BA99"></polygon><polygon points="340.61 397.94 324 399.03 322.58 391.92 340.83 391.07 340.61 397.94" style="fill:#fff;opacity:0.4"></polygon><path d="M306.24,334.76c1.78-.54,4.14-1.2,6.92-2-.56-4.56-.57-9.78,1.63-12.45,4.36-5.31,15.58-8.43,22-9.56C342.1,309.83,360,308,360,308s-23.28-2.23-47.09,4.71C301.19,316.1,303.48,327.6,306.24,334.76Z" style="isolation:isolate;opacity:0.2"></path><polygon points="368 292.69 382.3 292.8 382.83 296.31 368 296.53 368 292.69" style="fill:#263238"></polygon><polygon points="366.14 292.68 366.14 296.56 341.14 296.94 341.14 292.49 366.14 292.68" style="fill:#263238"></polygon><rect x="346.76" y="292.87" width="6.58" height="4.84" rx="1.14" style="fill:#fff"></rect><path d="M354.51,214.73l-6.93,11.44c2.13,3.3,3.6,7-.15,10.11a29.78,29.78,0,0,0,3.09,3.5,14.56,14.56,0,0,0,1.13.95A16.46,16.46,0,0,0,362.07,232C357.37,229.74,355.22,220.13,354.51,214.73Z" style="fill:#ebb376"></path><path d="M351.68,219.4l-4.09,6.76A17.86,17.86,0,0,1,349,228.8c2.06-1,4.24-4.37,3.71-6.71A7.86,7.86,0,0,0,351.68,219.4Z" style="opacity:0.2"></path><polygon points="350.79 243.17 349.03 239.66 351.53 238.23 353.64 239.22 350.79 243.17" style="fill:#88BA99"></polygon><path d="M351.53,238.23s2,2,4.24,4c2.85-1.89,9.49-6.87,8.82-10.81a4,4,0,0,0-2.1-1.67A43.47,43.47,0,0,1,351.53,238.23Z" style="fill:#fff"></path><path d="M334.91,204.29c-.79,2.84-.1,8.61,3.77,6.59S336.27,199.4,334.91,204.29Z" style="fill:#263238"></path><path d="M355.33,207.39c.68,7.22,1.45,11.42-1.6,15.63a9.07,9.07,0,0,1-4.86,3.47,10.12,10.12,0,0,1-11.93-6q-.35-.83-.63-1.74c-2-6.31-2-15.57,4-19.11A10,10,0,0,1,355.33,207.39Z" style="fill:#ebb376"></path><path d="M337.76,205.82c-5.06,0-9.19-4.95-3.24-9.8a15.41,15.41,0,0,1,4.68-2.39s-1.19,2,.23,3.28a7.3,7.3,0,0,1,7.2-4.93c-.75,1.61.53,4.83,2.88,3.71,3.56-1.69,8.92-1.21,8.69,3.34,4.84,2.2,2.84,9.7-3.43,13.55-3.61-2.69-3.44-9.46-3.44-9.46C348,204.73,342.35,205.78,337.76,205.82Z" style="fill:#263238"></path><path d="M357.28,199.67s2.78-1.94.33-4.24C360.8,196.17,360,198.72,357.28,199.67Z" style="fill:#263238"></path><path d="M356.9,200.44s2.47-2.32,4.21.54C361.05,197.72,358.39,197.93,356.9,200.44Z" style="fill:#263238"></path><path d="M359,212.93a6.79,6.79,0,0,1-2.74,4.47c-2,1.39-3.79-.18-3.94-2.46-.13-2.06.73-5.26,3-5.75A3.13,3.13,0,0,1,359,212.93Z" style="fill:#ebb376"></path><path d="M344.76,211c.09.58-.15,1.1-.53,1.16s-.77-.37-.86-1,.15-1.1.53-1.15S344.66,210.41,344.76,211Z" style="fill:#263238"></path><path d="M338.15,212c.09.58-.15,1.1-.53,1.16s-.76-.37-.85-1,.14-1.1.52-1.15S338.06,211.38,338.15,212Z" style="fill:#263238"></path><path d="M340.3,211.94a20.47,20.47,0,0,1-2.09,5.23,3.5,3.5,0,0,0,2.85.06Z" style="fill:#d58745"></path><path d="M346.46,208.57a.36.36,0,0,1-.34-.09,2.82,2.82,0,0,0-2.38-.82.36.36,0,0,1-.42-.26.35.35,0,0,1,.27-.42,3.47,3.47,0,0,1,3,1,.35.35,0,0,1,0,.49A.46.46,0,0,1,346.46,208.57Z" style="fill:#263238"></path><path d="M335,210.11a.34.34,0,0,1-.2,0,.34.34,0,0,1-.23-.44,3.37,3.37,0,0,1,2.16-2.28.34.34,0,0,1,.43.24.34.34,0,0,1-.23.42,2.68,2.68,0,0,0-1.7,1.83A.32.32,0,0,1,335,210.11Z" style="fill:#263238"></path><path d="M353.89,210s1.9,12.57-5,16.46a10.12,10.12,0,0,1-11.93-6q-.35-.83-.63-1.74a12.53,12.53,0,0,0,4.76.88,2.78,2.78,0,0,1,2-2.05l1.88-.66s1.83-2.54,3.35-2.21a7.44,7.44,0,0,0,4.37-5.17Z" style="opacity:0.30000000000000004"></path><path d="M344.54,219a7,7,0,0,1-.75.16.18.18,0,0,1-.2-.15.17.17,0,0,1,.15-.19,4.64,4.64,0,0,0,3.49-2.36.17.17,0,0,1,.23-.09.18.18,0,0,1,.08.23A4.78,4.78,0,0,1,344.54,219Z" style="fill:#263238"></path><path d="M351.53,238.23A21.39,21.39,0,0,0,348,243c-2.32-1.31-1.81-8.81-1.07-9.71a5.12,5.12,0,0,1,2.85-1.27S348,237.71,351.53,238.23Z" style="fill:#fff"></path></g><g id="freepik--Desk--inject-15"><path d="M216,275v2.61c0,.67.79.95,1.45.95h52.23c.67,0,1.48-.28,1.48-.95V275Z" style="fill:#88BA99"></path><path d="M216,275v2.61c0,.67.79.95,1.45.95h52.23c.67,0,1.48-.28,1.48-.95V275Z" style="fill:#fff;isolation:isolate;opacity:0.4"></path><path d="M216,275v2.61c0,.67.79.95,1.45.95h34.45c.67,0,1.46-.28,1.46-.95V275Z" style="isolation:isolate;opacity:0.2"></path><path d="M207.21,247.82l6.22,28.2a2.12,2.12,0,0,0,2,1.61h34a1.38,1.38,0,0,0,1.28-1.78l-6.21-28a1.94,1.94,0,0,0-2-1.38h-34C207.58,246.49,207,246.9,207.21,247.82Z" style="fill:#88BA99"></path><path d="M207.21,247.82l6.22,28.2a2.12,2.12,0,0,0,2,1.61h32.8a1.38,1.38,0,0,0,1.29-1.78l-6.22-28a1.93,1.93,0,0,0-2-1.38H208.5C207.58,246.49,207,246.9,207.21,247.82Z" style="fill:#fff;isolation:isolate;opacity:0.4"></path><path d="M224,262.16h0c0,2.41,2.59,4.37,4.48,4.37s3-2,2.48-4.37-2.42-4.3-4.28-4.37c.54,2.41-.62,4.37-2.51,4.37Z" style="isolation:isolate;opacity:0.2"></path><polygon points="299.53 278.82 300.26 276.06 330.28 276.06 344.11 277.44 344.64 278.82 299.53 278.82" style="fill:#263238"></polygon><polygon points="330.28 276.06 330.28 278.82 299.53 278.82 300.26 276.06 330.28 276.06" style="isolation:isolate;opacity:0.4"></polygon><path d="M324.25,262.84a2.36,2.36,0,0,1-2.38,2.64h-46a3,3,0,0,1-2.88-2.64l-2.73-29.45a2.45,2.45,0,0,1,.06-.86,2.34,2.34,0,0,1,2.32-1.78h46a3,3,0,0,1,2.88,2.64Z" style="fill:#88BA99"></path><path d="M321.71,265.48H275.87a3,3,0,0,1-2.88-2.64l-2.73-29.45a2.45,2.45,0,0,1,.06-.86h45.83a3,3,0,0,1,2.88,2.64l2.73,29.45A2.72,2.72,0,0,1,321.71,265.48Z" style="fill:#fff;isolation:isolate;opacity:0.4"></path><polygon points="290.11 247.42 299.62 247.42 297.08 274.66 312.13 276.92 312.13 278.82 280.44 278.82 280.44 276.92 286.93 274.66 290.11 247.42" style="fill:#88BA99"></polygon><polygon points="299.62 247.42 292.57 278.39 286.93 278.22 290.11 247.42 299.62 247.42" style="fill:#fff;isolation:isolate;opacity:0.30000000000000004"></polygon><polygon points="265.35 415.98 260.08 415.98 250.61 284.18 257.6 284.18 265.35 415.98" style="fill:#263238"></polygon><polygon points="265.35 415.98 260.08 415.98 251.07 290.73 250.61 284.39 257.6 284.39 257.98 290.73 265.35 415.98" style="fill:#fff;isolation:isolate;opacity:0.1"></polygon><polygon points="257.98 290.42 251.07 290.42 250.61 284.39 257.6 284.39 257.98 290.42" style="isolation:isolate;opacity:0.2"></polygon><polygon points="304.01 415.98 298.75 415.98 297.88 284.18 304.87 284.18 304.01 415.98" style="fill:#263238"></polygon><polygon points="304.88 284.39 304.74 305.66 304.02 415.98 298.75 415.98 298.02 305.66 297.89 284.39 304.88 284.39" style="fill:#fff;isolation:isolate;opacity:0.1"></polygon><polygon points="304.88 284.39 304.74 305.9 298.02 305.9 297.89 284.39 304.88 284.39" style="isolation:isolate;opacity:0.2"></polygon><polygon points="359.95 415.98 354.68 415.98 345.22 284.18 352.21 284.18 359.95 415.98" style="fill:#263238"></polygon><polygon points="359.96 415.98 354.68 415.98 345.68 290.73 345.21 284.39 352.21 284.39 352.58 290.73 359.96 415.98" style="fill:#fff;isolation:isolate;opacity:0.1"></polygon><polygon points="352.58 290.42 345.68 290.42 345.21 284.39 352.21 284.39 352.58 290.42" style="isolation:isolate;opacity:0.2"></polygon><polygon points="205.07 415.98 199.8 415.98 207.55 284.18 214.54 284.18 205.07 415.98" style="fill:#263238"></polygon><polygon points="214.54 284.39 214.07 290.73 205.07 415.98 199.81 415.98 207.17 290.73 207.55 284.39 214.54 284.39" style="fill:#fff;isolation:isolate;opacity:0.1"></polygon><polygon points="207.55 284.39 214.54 284.39 214.07 290.42 207.17 290.42 207.55 284.39" style="isolation:isolate;opacity:0.2"></polygon><path d="M202,280.88H357.75a0,0,0,0,1,0,0v4.68a1.92,1.92,0,0,1-1.92,1.92H203.93a1.92,1.92,0,0,1-1.92-1.92v-4.68A0,0,0,0,1,202,280.88Z" style="fill:#263238"></path><path d="M202,280.88H357.75a0,0,0,0,1,0,0v4.68a1.92,1.92,0,0,1-1.92,1.92H203.93a1.92,1.92,0,0,1-1.92-1.92v-4.68A0,0,0,0,1,202,280.88Z" style="fill:#fff;isolation:isolate;opacity:0.6000000000000001"></path><rect x="202.01" y="280.88" width="155.74" height="3.3" style="isolation:isolate;opacity:0.2"></rect><path d="M361,281.74H198.74a1.86,1.86,0,0,1-1.86-1.86h0a1.87,1.87,0,0,1,1.86-1.86H361a1.86,1.86,0,0,1,1.86,1.86h0A1.86,1.86,0,0,1,361,281.74Z" style="fill:#263238"></path><path d="M361,281.74H198.74a1.86,1.86,0,0,1-1.86-1.86h0a1.87,1.87,0,0,1,1.86-1.86H361a1.86,1.86,0,0,1,1.86,1.86h0A1.86,1.86,0,0,1,361,281.74Z" style="fill:#fff;isolation:isolate;opacity:0.7000000000000001"></path></g></svg>